# Blender v2.79 (sub 0) OBJ File: ''
# www.blender.org
v 0.000000 0.000000 0.000000
v -0.000001 -0.000000 1.000000
v -1.000000 -0.000000 1.000000
v -1.000000 0.000000 0.000000
v 0.000000 1.159679 0.000000
v -0.324302 0.917338 0.324302
v 0.000000 0.000000 -1.000000
v -1.000000 0.000000 -1.000000
v -0.324302 0.917338 -0.324302
v 0.999999 -0.000000 1.000001
v 0.324301 0.917338 0.324302
v 1.000000 -0.000000 0.000001
v 1.000000 0.000000 -0.999999
v 0.324302 0.917338 -0.324301
vt 0.279012 0.250000
vt 0.279012 0.000000
vt 0.558024 0.000000
vt 0.558024 0.250000
vt 0.685546 0.331075
vt 0.573808 0.250000
vt 0.685546 0.168924
vt 0.558024 0.331075
vt 1.000000 0.500000
vt 0.606780 0.500000
vt 0.127522 0.668925
vt 0.441976 0.500000
vt 0.441976 1.000000
vt 0.127522 0.831075
vt 0.279012 0.500000
vt 0.558024 0.500000
vt 0.000000 0.500000
vt 0.000000 0.250000
vt 0.015785 0.750000
vt 0.000000 0.668925
vt 0.000000 0.000000
vt 1.000000 0.000000
vt 0.000000 0.831076
vt 0.048756 1.000000
vn 0.0000 -1.0000 -0.0000
vn -0.4426 0.7799 0.4426
vn 0.0000 1.0000 -0.0000
vn -0.4426 0.7799 -0.4426
vn 0.4426 0.7799 0.4426
vn -0.0000 0.5931 0.8052
vn 0.8052 0.5931 0.0000
vn 0.4426 0.7799 -0.4426
vn -0.8052 0.5931 0.0000
vn 0.0000 0.5931 -0.8052
s 1
f 1/1/1 2/2/1 3/3/1 4/4/1
f 6/5/2 5/6/3 9/7/4
f 11/8/5 6/5/2 3/9/6 10/10/6
f 11/11/5 10/12/7 13/13/7 14/14/8
f 7/15/1 1/1/1 4/4/1 8/16/1
f 13/17/1 12/18/1 1/1/1 7/15/1
f 5/19/3 11/11/5 14/14/8
f 5/19/3 6/20/2 11/11/5
f 12/18/1 10/21/1 2/2/1 1/1/1
f 6/5/2 9/7/4 8/22/9 3/9/9
f 5/19/3 14/14/8 9/23/4
f 14/14/8 13/13/10 8/24/10 9/23/4
